<?xml version="1.0" encoding="UTF-8" standalone="no"?>
<svg
   width="1024"
   height="1024"
   viewBox="0 0 270.93333 270.93333"
   version="1.1"
   xmlns="http://www.w3.org/2000/svg">
  <rect width="270.93333" height="270.93333" fill="#101828"/>
  <g>
    <path
       d="m 22.873239,195.30247 c 0.210786,-0.2109 5.422462,-1.87943 11.581522,-3.70814 48.598889,-14.42963 116.263729,-37.70132 144.899219,-49.83457 14.02151,-5.9411 15.218,-6.50608 15.218,-7.18597 0,-0.37229 -0.23912,-0.43301 -1.26816,-0.28228 -2.11554,0.65826 -30.33279,3.94904 -40.72616,4.74962 -26.45091,2.03745 -50.73385,-0.3029 -58.364869,-5.62516 -9.735923,-6.79026 -1.20912,-16.16476 26.398879,-29.02329 11.38294,-5.301639 21.79601,-9.705508 40.08235,-15.210384 18.85908,-5.67729 20.47578,-5.608875 20.91339,-5.086002 1.04379,1.647306 0.98338,1.658759 -3.15925,3.174146 -18.01843,6.591193 -43.60408,16.97482 -53.17194,23.32752 -6.05254,4.01864 -8.23913,8.69187 -5.73783,12.26294 1.4926,2.13103 7.04922,4.31845 13.63584,5.36792 7.61621,1.2135 32.58291,0.46766 45.67403,-1.36444 5.50107,-0.76989 10.15815,-1.55601 10.3491,-1.74696 0.69566,-0.69565 -3.31512,-2.69803 -10.17881,-5.08176 -6.33793,-2.20118 -6.89988,-2.54025 -5.76671,-3.47945 1.01785,-0.84366 4.6292,-1.03621 19.078,-1.01728 22.92744,0.0302 34.11944,1.7891 36.72963,5.77272 2.15853,3.29436 0.22128,5.84848 -20.71884,27.31668 -7.27705,7.46059 -9.45018,9.28611 -11.05114,9.28349 -1.70601,-0.003 -1.99285,-0.29986 -1.99285,-2.06382 0,-1.13328 0.72985,-3.87459 1.41031,-6.15966 0.90831,-3.05022 1.25874,-4.09911 1.07352,-4.09911 -0.18516,0 -5.73937,2.62535 -12.34245,5.8341 -40.97239,19.91035 -88.862005,34.01504 -139.838934,41.18607 -19.081193,2.68417 -23.205716,3.17296 -22.725847,2.69307 z"
       fill="#FFFFFF" />
    <ellipse
       fill="#FFFFFF"
       cx="192.51585"
       cy="73.685349"
       rx="10.301863"
       ry="9.9265671" />
    <ellipse
       fill="#101828"
       cx="191.60213"
       cy="73.029007"
       rx="2.3141868"
       ry="2.3705237" />
  </g>
</svg>
