<?xml version="1.0" encoding="UTF-8" standalone="no"?>
<svg
   width="1024"
   height="1024"
   viewBox="0 0 270.93333 270.93333"
   version="1.1"
   xmlns="http://www.w3.org/2000/svg">
  <rect width="270.93333" height="270.93333" fill="#000000"/>
  <g>
    <path
       d="m 21.028508,158.89848 c 0.09409,-0.0942 2.420572,-0.83898 5.169959,-1.65531 21.694407,-6.44134 51.899801,-16.82976 64.682604,-22.24601 6.259162,-2.65209 6.793272,-2.9043 6.793272,-3.2078 0,-0.16619 -0.106742,-0.19329 -0.566103,-0.12601 -0.944371,0.29385 -13.540472,1.76284 -18.180043,2.12022 -11.807612,0.90951 -22.647448,-0.13521 -26.053914,-2.51105 -4.346088,-3.03116 -0.539747,-7.21591 11.784386,-12.95592 5.081312,-2.36664 9.729677,-4.33251 17.892648,-6.78987 8.41864,-2.53433 9.140331,-2.50379 9.335678,-2.27038 0.465945,0.73535 0.438979,0.74047 -1.41028,1.41693 -8.043376,2.94229 -19.464739,7.57751 -23.735804,10.41334 -2.701837,1.79391 -3.677925,3.88003 -2.561351,5.47414 0.666292,0.95129 3.146752,1.92775 6.087,2.39623 3.399855,0.5417 14.54492,0.20876 20.388759,-0.60909 2.455662,-0.34367 4.534569,-0.69459 4.619809,-0.77983 0.31054,-0.31054 -1.47986,-1.2044 -4.543792,-2.26849 -2.829234,-0.9826 -3.080087,-1.13396 -2.574243,-1.55321 0.454365,-0.37661 2.066461,-0.46256 8.516365,-0.45411 10.234752,0.0135 15.230822,0.79864 16.396002,2.57692 0.96357,1.47059 0.0988,2.61075 -9.24883,12.19409 -3.24845,3.33039 -4.218533,4.14529 -4.933203,4.14412 -0.761553,-0.001 -0.889598,-0.13385 -0.889598,-0.92128 0,-0.50589 0.325808,-1.72961 0.629558,-2.74965 0.40547,-1.36161 0.5619,-1.82984 0.47922,-1.82984 -0.0827,0 -2.562042,1.17195 -5.509638,2.60433 -18.28996,8.88793 -39.667749,15.18422 -62.423707,18.38535 -8.517791,1.1982 -10.358966,1.4164 -10.144754,1.20218 z"
       fill="#FFFFFF" />
    <ellipse fill="#FFFFFF" cx="96.756493" cy="104.60892" rx="4.5987225" ry="4.4311914" />
    <ellipse fill="#000000" cx="96.34861" cy="104.31594" rx="1.0330465" ry="1.0581951" />
    <path
       d="m 134.43548,141.3694 c -4.00243,-0.70895 -10.36794,-3.21539 -10.31703,-4.06234 0.007,-0.11841 0.94237,-1.23404 2.0783,-2.47916 l 2.06535,-2.26384 2.14634,1.02434 c 3.39219,1.61895 6.06383,2.10904 10.62788,1.94962 3.19078,-0.11145 4.27449,-0.28215 5.66824,-0.89291 2.04812,-0.8975 3.85203,-2.77677 4.33503,-4.51611 0.37321,-1.34405 0.48339,-4.708 0.15419,-4.708 -0.10909,0 -0.92986,0.65777 -1.82405,1.46173 -2.81148,2.52776 -7.27621,3.6583 -12.31403,3.11811 -4.72952,-0.50713 -7.90068,-1.88305 -10.73203,-4.65645 -3.2517,-3.18518 -4.67055,-7.78632 -3.90988,-12.67922 0.69027,-4.43999 2.46177,-7.42701 5.67875,-9.57523 2.68039,-1.78988 5.03898,-2.59912 8.83263,-3.03051 5.61366,-0.638343 10.45928,0.55333 13.23404,3.25462 l 1.23283,1.20017 v -1.87485 -1.87487 h 4.2738 4.27379 l -0.006,13.3967 c -0.004,7.36818 -0.1555,14.42769 -0.33761,15.68778 -0.84184,5.82519 -4.30705,9.39194 -10.72681,11.04109 -3.44973,0.8862 -10.76479,1.12914 -14.43323,0.47933 z m 9.46125,-17.63268 c 4.95137,-1.04947 7.48088,-4.03713 7.48088,-8.83582 0,-3.08379 -0.66306,-4.643 -2.75893,-6.48787 -2.45708,-2.16281 -6.28541,-3.07077 -10.06095,-2.38613 -5.16173,0.936 -7.87715,4.05805 -7.87715,9.0567 0,6.45596 5.76721,10.23199 13.21615,8.65312 z m 73.50015,6.95065 c -8.31169,-1.7525 -13.07554,-7.13022 -13.07554,-14.76043 0,-10.05011 7.01252,-15.83143 19.23207,-15.85548 6.69078,-0.0132 10.74014,1.29083 14.40241,4.63793 6.70234,6.12557 5.75265,18.46965 -1.79636,23.3488 -4.61365,2.98194 -12.10849,4.03219 -18.76258,2.62918 z m 11.3194,-6.23396 c 2.2204,-1.05448 4.05684,-3.18298 4.72283,-5.47391 0.71288,-2.45218 0.51344,-6.0211 -0.44044,-7.88169 -1.60857,-3.13759 -5.19396,-5.07623 -9.37541,-5.06936 -4.71414,0.007 -7.89808,1.54694 -9.6161,4.64862 -1.49321,2.69581 -1.38588,7.58975 -0.025,10.04554 1.06349,1.91911 2.69401,3.1992 5.23163,4.10727 2.40514,0.86065 7.30635,0.66648 9.50246,-0.37647 z m -61.54407,-8.56625 v -14.46515 h 4.27379 4.2738 v 14.46515 14.46514 h -4.2738 -4.27379 z m 15.54845,-0.24657 0.0674,-14.71172 4.1916,-0.092 4.1916,-0.0919 v 2.6486 2.6486 l 1.89034,-1.99879 c 2.40072,-2.71493 7.16903,-4.446693 10.57548,-2.82985 0.40259,0.25481 0.40259,0.26468 0,3.05663 l -0.46631,3.2339 -3.12317,0.19007 c -3.6237,0.22053 -5.27926,0.90412 -6.88145,2.84136 -1.75262,2.1191 -1.99489,3.59475 -1.99489,12.1509 v 7.66603 h -4.25894 -4.25893 z M 168.98035,98.002147 c -2.03178,-0.89686 -2.78832,-2.54026 -1.96657,-4.27195 1.72444,-3.63399 9.03477,-2.65371 9.03477,1.2115 0,1.41109 -0.56725,2.19735 -2.08123,2.88474 -1.59472,0.72407 -3.58576,0.79422 -4.98697,0.17571 z"
       fill="#FFFFFF" />
  </g>
</svg>
